<svg width="19" height="16" viewBox="0 0 19 16" fill="none" xmlns="http://www.w3.org/2000/svg">
<path fill-rule="evenodd" clip-rule="evenodd" d="M2.36943 16C1.95077 15.9952 1.54802 15.8846 1.19303 15.68C0.0532331 15.021 -0.339168 13.5572 0.319875 12.4182L7.0679 1.15244C7.06869 1.15085 7.06949 1.14926 7.07029 1.14766C7.26927 0.820531 7.54706 0.542746 7.87339 0.345351C8.99806 -0.336774 10.4706 0.0229936 11.1527 1.14766L17.8967 12.4071C18.1077 12.7732 18.2191 13.1768 18.2239 13.5851C18.231 14.2242 17.9883 14.826 17.5417 15.2821C17.096 15.7373 16.4991 15.9928 15.8615 16H2.36943Z" fill="#E97C64"/>
<path fill-rule="evenodd" clip-rule="evenodd" d="M9.1115 9.63212C8.67214 9.63212 8.31555 9.27633 8.31555 8.83617V5.65239C8.31555 5.21303 8.67214 4.85645 9.1115 4.85645C9.55086 4.85645 9.90744 5.21303 9.90744 5.65239V8.83617C9.90744 9.27633 9.55086 9.63212 9.1115 9.63212Z" fill="white"/>
<path fill-rule="evenodd" clip-rule="evenodd" d="M9.1115 12.8175C8.89659 12.8175 8.69761 12.73 8.54638 12.5788C8.47474 12.5063 8.41902 12.4196 8.37923 12.3241C8.33943 12.2285 8.31555 12.1251 8.31555 12.0216C8.31555 11.9181 8.33943 11.8146 8.37923 11.7191C8.41902 11.6157 8.47474 11.5281 8.54638 11.4565C8.84883 11.162 9.38212 11.162 9.67662 11.4565C9.74825 11.5281 9.80397 11.6157 9.84377 11.7191C9.88356 11.8146 9.90744 11.9181 9.90744 12.0216C9.90744 12.2365 9.82785 12.4355 9.67662 12.5788C9.52539 12.73 9.3264 12.8175 9.1115 12.8175Z" fill="white"/>
</svg>
