<svg width="19" height="19" viewBox="0 0 19 19" fill="none" xmlns="http://www.w3.org/2000/svg">
<path d="M1.425 9.81602C1.2739 9.66511 1.14005 9.52821 1.02553 9.40918C1.14005 9.29015 1.2739 9.15324 1.425 9.00233C1.9755 8.4525 2.7505 7.72117 3.65049 6.99188C4.55278 6.26073 5.56573 5.5439 6.59214 5.01279C7.62641 4.47762 8.62074 4.15918 9.5 4.15918C10.3793 4.15918 11.3736 4.47762 12.4079 5.01279C13.4343 5.5439 14.4472 6.26073 15.3495 6.99188C16.2495 7.72117 17.0245 8.4525 17.575 9.00233C17.7212 9.14837 17.8513 9.28129 17.9633 9.39759C17.8434 9.51711 17.7035 9.65456 17.5459 9.80605C16.9724 10.3575 16.1697 11.0908 15.2501 11.8222C14.328 12.5555 13.3037 13.2746 12.2867 13.8073C11.2581 14.346 10.3021 14.6592 9.5 14.6592C8.62074 14.6592 7.62641 14.3407 6.59214 13.8056C5.56573 13.2745 4.55278 12.5576 3.65049 11.8265C2.7505 11.0972 1.9755 10.3659 1.425 9.81602Z" stroke="#1E1E1E" stroke-width="1.5"/>
<line x1="1.39398" y1="1.46967" x2="17.8031" y2="17.8788" stroke="#1E1E1E" stroke-width="1.5"/>
</svg>
