<svg width="19" height="12" viewBox="0 0 19 12" fill="none" xmlns="http://www.w3.org/2000/svg">
<path fill-rule="evenodd" clip-rule="evenodd" d="M9.5 8.09082C10.6046 8.09082 11.5 7.19539 11.5 6.09082C11.5 4.98625 10.6046 4.09082 9.5 4.09082C8.39543 4.09082 7.5 4.98625 7.5 6.09082C7.5 7.19539 8.39543 8.09082 9.5 8.09082ZM9.5 9.59082C11.433 9.59082 13 8.02382 13 6.09082C13 4.15782 11.433 2.59082 9.5 2.59082C7.567 2.59082 6 4.15782 6 6.09082C6 8.02382 7.567 9.59082 9.5 9.59082Z" fill="#1E1E1E"/>
<path fill-rule="evenodd" clip-rule="evenodd" d="M0 6C0 6 5.30882 12 9.5 12C13.4118 12 19 6 19 6C19 6 13.6912 0 9.5 0C5.30882 0 0 6 0 6ZM2.07971 6C2.60686 6.52029 3.31386 7.17918 4.12267 7.83459C5.0017 8.54689 5.97107 9.23057 6.93681 9.73028C7.91826 10.2381 8.78928 10.5 9.5 10.5C10.1263 10.5 10.9556 10.2486 11.9387 9.73372C12.8987 9.23092 13.8821 8.54273 14.7832 7.82602C15.6134 7.16575 16.348 6.50207 16.8984 5.97838C16.3736 5.46153 15.675 4.81177 14.8773 4.16541C13.9983 3.45311 13.0289 2.76943 12.0632 2.26972C11.0817 1.76188 10.2107 1.5 9.5 1.5C8.78928 1.5 7.91826 1.76188 6.93681 2.26972C5.97107 2.76943 5.0017 3.45311 4.12267 4.16541C3.31386 4.82082 2.60686 5.47972 2.07971 6Z" fill="#1E1E1E"/>
</svg>
